<?xml version="1.0" standalone="no"?>
<!DOCTYPE svg PUBLIC "-//W3C//DTD SVG 1.1//EN" "http://www.w3.org/Graphics/SVG/1.1/DTD/svg11.dtd">
<svg xmlns="http://www.w3.org/2000/svg">
<metadata>Copyright (C) 2021 by original authors @ fontello.com</metadata>
<defs>
<font id="fontello" horiz-adv-x="1000" >
<font-face font-family="fontello" font-weight="400" font-stretch="normal" units-per-em="1000" ascent="850" descent="-150" />
<missing-glyph horiz-adv-x="1000" />
<glyph glyph-name="home" unicode="&#xe800;" d="M888 336q16-16 11-27t-27-11l-84 0 0-310q0-14-1-21t-8-13-23-6l-204 0 0 310-204 0 0-310-194 0q-28 0-35 10t-7 30l0 310-84 0q-22 0-27 11t11 27l400 402q16 16 38 16t38-16z" horiz-adv-x="900" />

<glyph glyph-name="upload" unicode="&#xe801;" d="M500 776l260-244-164 0 0-256-190 0 0 256-166 0z m468-578q18-10 27-32t3-40l-28-154q-4-20-22-33t-40-13l-816 0q-22 0-40 13t-22 33l-28 154q-10 48 32 72l158 108 98 0-170-130 178 0q8 0 12-8l40-110 300 0 40 110q8 8 12 8l178 0-170 130 98 0z" horiz-adv-x="1000" />

<glyph glyph-name="down-open-big" unicode="&#xe802;" d="M63 570l370-356 372 356q22 26 48 0 26-22 0-48l-396-392q-22-22-48 0l-396 392q-26 26 0 48 24 24 50 0z" horiz-adv-x="866" />

<glyph glyph-name="left-open-big" unicode="&#xe803;" d="M452-20q26-26 0-48-26-26-48 0l-392 394q-24 24 0 50l392 394q22 26 48 0 26-22 0-48l-358-372z" horiz-adv-x="465" />

<glyph glyph-name="right-open-big" unicode="&#xe804;" d="M13-20l358 370-358 372q-26 26 0 48 26 26 48 0l392-394q24-26 0-50l-392-394q-22-26-48 0-26 22 0 48z" horiz-adv-x="465" />

<glyph glyph-name="up-open-big" unicode="&#xe805;" d="M804 130l-372 358-370-358q-26-22-50 0-24 24 0 50l396 390q26 26 48 0l396-390q24-26 0-50-26-22-48 0z" horiz-adv-x="864" />

<glyph glyph-name="play" unicode="&#xe806;" d="M486 376q14-10 14-26 0-14-14-24l-428-266q-24-16-41-6t-17 40l0 514q0 30 17 40t41-6z" horiz-adv-x="500" />

<glyph glyph-name="stop" unicode="&#xe807;" d="M526 650q74 0 74-64l0-470q0-66-74-66l-450 0q-76 0-76 66l0 470q0 36 18 50t58 14l450 0z" horiz-adv-x="600" />

<glyph glyph-name="pause" unicode="&#xe808;" d="M440 700q90 0 90-64l0-570q0-66-90-66t-90 66l0 570q0 64 90 64z m-350 0q90 0 90-64l0-570q0-66-90-66t-90 66l0 570q0 64 90 64z" horiz-adv-x="530" />

<glyph glyph-name="record" unicode="&#xe809;" d="M350 700q146 0 248-102t102-248q0-144-102-247t-248-103-248 103-102 247q0 146 102 248t248 102z" horiz-adv-x="700" />

<glyph glyph-name="to-end" unicode="&#xe80a;" d="M412 374q14-10 14-24 0-12-14-22l-362-228q-22-14-36-5t-14 35l0 442q0 26 14 35t36-5z m114 268q74 0 74-58l0-466q0-58-74-58-76 0-76 58l0 466q0 58 76 58z" horiz-adv-x="600" />

<glyph glyph-name="to-start" unicode="&#xe80b;" d="M174 350q0 14 14 24l364 228q20 14 34 5t14-35l0-442q0-26-14-35t-34 5l-364 228q-14 10-14 22z m-174 234q0 58 76 58 74 0 74-58l0-466q0-58-74-58-76 0-76 58l0 466z" horiz-adv-x="600" />

<glyph glyph-name="fast-forward" unicode="&#xe80c;" d="M866 374q14-10 14-24t-14-22l-372-248q-22-14-37-6t-15 36l0 482q0 28 15 36t37-6z m-454 0q14-10 14-24t-14-22l-360-248q-20-14-36-6t-16 36l0 482q0 28 16 36t36-6z" horiz-adv-x="880" />

<glyph glyph-name="fast-backward" unicode="&#xe80d;" d="M0 350q0 14 14 24l374 248q20 14 36 6t16-36l0-482q0-28-16-36t-36 6l-374 248q-14 8-14 22z m454 0q0 14 14 24l360 248q20 14 36 6t16-36l0-482q0-28-16-36t-36 6l-360 248q-14 8-14 22z" horiz-adv-x="880" />

<glyph glyph-name="diamond" unicode="&#xe80e;" d="M0 502q0 28 18 45l160 158q17 20 43 20l558 0q26 0 43-20l160-158q18-17 18-43 0-23-16-43l-437-465q-20-21-47-21t-47 21l-437 465q-16 18-16 41z m63 4l134 0 84 84-72 61z m27-31l307-328-196 328-111 0z m146 0l231-383-76 383-155 0z m4 31l143 0-78 65z m2 156l61-50 51 50-112 0z m84-70l80-66 71 58-86 71z m96-117l78-389 78 389-156 0z m8 31l140 0-70 57z m0 156l70-58 68 58-138 0z m95-78l69-58 80 66-65 63z m8-492l231 383-155 0z m71 55l306 328-111 0z m13 359l143 0-65 65z m29 156l51-50 61 50-112 0z m73-72l84-84 133 0-145 145z" horiz-adv-x="1000" />

<glyph glyph-name="gauge" unicode="&#xe80f;" d="M406 178q34 56 214 284t194 220q12-6-96-278t-138-326q-50-86-136-36t-38 136z m94 380q-168 0-284-127t-116-311q0-30 2-46 2-22-12-37t-34-17-36 12-18 34q0 8-1 26t-1 28q0 226 145 382t355 156q72 0 134-18l-70-86q-40 4-64 4z m362-62q138-154 138-376 0-38-2-56-2-20-16-33t-34-13l-4 0q-22 4-35 20t-11 36q2 14 2 46 0 150-80 268 6 14 20 51t22 57z" horiz-adv-x="1000" />

<glyph glyph-name="rew" unicode="&#xe810;" d="M100 750v-247-328h114l61-175 175 175h235 303v277 298h-138-225-525z" horiz-adv-x="1100" />

<glyph glyph-name="telega" unicode="&#xe811;" d="M448-75c-34 0-28 12-40 43l-99 312 762 432m-623-787c26 0 37 11 52 25l138 129-173 100m0 0l419-296c48-26 83-13 95 42l170 769c18 67-27 97-72 77l-1002-369c-68-26-68-63-12-79l257-77 595 359c28 16 54 8 32-10" horiz-adv-x="1154" />

<glyph glyph-name="timer" unicode="&#xe812;" d="M53 343c0 251 201 454 450 454 46 0 91-6 132-19m-229-532c54-54 141-54 194 0 54 54 276 433 256 453-19 19-396-204-450-258-53-54-53-141 0-195z m97 58c22 0 40 18 40 39 0 22-18 40-40 40-21 0-39-18-39-40 0-21 18-39 39-39z" horiz-adv-x="974" />

<glyph glyph-name="twit" unicode="&#xe813;" d="M1217 719c-44-20-90-34-139-40 50 31 88 80 106 138-47-29-98-49-154-60-44 48-107 78-176 78-134 0-242-111-242-249 0-19 2-38 6-56-201 10-379 109-499 260-20-37-32-80-32-125 0-87 42-163 107-207-39 1-77 12-109 31v-3c0-121 83-221 194-244-20-6-42-9-64-9-15 0-31 2-45 5 30-99 120-171 226-173-83-67-187-106-301-106-19 0-39 1-58 3 108-71 235-112 371-112 445 0 689 379 689 708 0 10-1 21-1 32 47 35 88 79 121 129" horiz-adv-x="1286" />

<glyph glyph-name="users" unicode="&#xe814;" d="M837-120c0 218-180 394-403 394-223 0-404-176-404-394m1076 368c0 92-74 165-166 165-92 0-167-73-167-165" horiz-adv-x="1136" />

<glyph glyph-name="play_small" unicode="&#xe815;" d="M750 508c83-48 83-168 0-216l-562-325c-84-48-188 12-188 108v650c0 96 104 156 188 108l562-325z" horiz-adv-x="875" />

<glyph glyph-name="mem" unicode="&#xe816;" d="M1214 700h-46c-18 0-42-25-42-41v-570c0-16 24-37 42-37h46v-136h-422v136h88v599h-4l-207-735h-160l-203 735h-6v-599h89v-136h-354v136h45c19 0 43 21 43 37v570c0 16-24 41-43 41h-45v135h442l146-532h4l146 532h441v-135z" horiz-adv-x="1214" />

<glyph glyph-name="home-1" unicode="&#xe817;" d="M95 475v-530h211l123 96 122-96h211v530l-333 280-334-280z" horiz-adv-x="857" />

<glyph glyph-name="glass" unicode="&#xe818;" d="M729 460c0-182-148-329-330-329-183 0-331 147-331 329 0 182 148 330 331 330 182 0 330-148 330-330z m-55-275l275-275" horiz-adv-x="1056" />

<glyph glyph-name="fb" unicode="&#xe819;" d="M333-150v456h151l23 178h-174v113c0 52 14 87 87 87l93 0v159c-16 2-72 7-136 7-134 0-225-83-225-235v-131h-152v-178h152v-456h181z" horiz-adv-x="529" />

<glyph glyph-name="facebook" unicode="&#xe81a;" d="M5014-23c34 0 62-27 62-61 0-35-28-62-63-62-34 0-62 27-62 62 0 34 28 61 62 61h1z m-3998-115h-171l-7 42c-78-42-148-49-194-49-125 0-192 82-192 194 0 133 78 180 217 180h142v29c0 67-8 87-116 87h-175l18 166h192c235 0 287-72 287-255v-394h-1z m2549 261c0-136-58-267-299-267-241 0-300 131-300 267v131c0 135 59 266 300 266 242 0 300-131 300-267v-130l-1 0z m657 0c0-136-58-267-298-267-242 0-300 131-300 267v131c0 135 58 266 299 266 241 0 299-131 299-267v-130l0 0z m791-156c-27 0-50-23-50-51 0-30 23-53 51-53 28 0 50 23 50 52 0 28-22 52-50 52h-1v0z m-4698-103h-205v481h-103v166h103v100c0 135 58 216 222 216h137v-166h-85c-64 0-69-23-69-67l-1-83h156l-19-166h-136v-482l0 1z m4687 16h-12v68c7 1 12 2 21 2 11 0 18-2 22-5 4-3 7-8 7-14 0-9-6-15-14-17v-1c6-1 10-6 12-16 2-11 3-15 4-17h-12c-1 2-3 8-4 17-2 9-7 12-16 12h-8v-29l0 0z m0 38h8c9 0 17 3 17 12 0 6-4 12-17 12-4 0-6-1-8-1v-23z m-4345 134c0-37 18-56 57-56 42 0 67 14 97 27v73h-91c-44 0-63-8-63-44v0z m1960 302c-42 0-72-13-103-27v-306c29-2 46-2 74-2 101 0 114 44 114 107v146c0 46-16 83-85 83v-1z m649 0c-70 0-94-37-94-82v-168c0-46 24-83 94-83 69 0 94 37 94 83v168c0 46-25 83-95 83l1-1z m-1668-20c-106 17-137 21-188 21-92 0-120-19-120-95v-143c0-76 28-96 120-96 51 0 82 4 188 22v-162c-93-20-154-26-205-26-221 0-308 113-308 275v116c0 163 87 275 308 275 51 0 112-5 205-26v-161z m642-204h-376v-13c0-76 28-96 120-96 82 0 133 4 239 22v-162c-102-20-156-26-256-26-220 0-308 113-308 275v133c0 142 65 258 291 258 226 0 291-115 291-258v-133l-1 0z m1683 224c-70 0-94-37-94-82v-168c0-46 24-83 94-83 69 0 94 37 94 83v168c0 46-25 83-94 83v-1z m974-490h-223l-188 304v-304h-205v913l205 33v-588l188 289h222l-205-315 205-332 1 0z m-2947 507c-70 0-86-37-86-83v-25h171v25c0 46-16 83-85 83v0z m957-244c0-157-46-272-327-272-101 0-160 9-272 26v896l205 33v-313c45 16 102 24 154 24 206 0 240-89 240-233v-162l0 1z" horiz-adv-x="5087" />

<glyph glyph-name="bitbucket" unicode="&#xe81b;" d="M515 50c-6 0-9-3-9-3 0 0-73-57-206-57-132 0-206 57-206 57 0 0-6 3-9 3-5 0-11-3-11-11v-3c11-60 20-103 20-109 9-43 97-77 203-77 106 0 194 34 203 77 0 6 9 49 21 109v3c3 5 0 11-6 11h0z m597 140c38 20 53 49 53 91v60c0 86-53 129-165 129h-223c-9 0-15-6-15-14v-560c0-9 6-15 15-15h241c106 0 168 52 168 140v60c0 52-27 92-74 109v0z m230 126h-91c-9 0-15-6-15-15v-405c0-9 6-15 15-15h91c9 0 15 6 15 15v405c0 9-6 15-15 15l0 0z m2192 8c-124 0-185-60-185-171v-112c0-114 61-168 191-168 53 0 109 8 156 26 6 2 12 8 9 17l-15 62c0 3-3 9-6 9-3 3-9 3-12 3-41-11-82-17-120-17-68 0-80 20-80 66v14h227c9 0 15 6 15 14v80c-3 120-59 177-180 177l0 0z m-1615-348c-24 0-41 0-59 3v220c26 11 62 23 88 23 36 0 50-15 50-46v-128c0-49-12-72-79-72l0 0z m2092-9c0 3-3 9-6 12-3 3-9 3-12 3-18-3-32-6-44-6-24 0-32 8-32 31v215h88c9 0 14 5 14 14v66c0 8-5 14-14 14h-88v103c0 5-3 8-6 11-3 3-9 3-12 3l-91-12c-9 0-15-8-15-14v-91h-50c-9 0-15-6-15-15v-65c0-9 6-15 15-15h50v-228c0-77 41-117 126-117 24 0 65 5 92 14 6 3 11 9 8 17l-8 60 0 0z m-2328 0c0 3-3 9-6 12-2 3-8 3-11 3-15-3-33-6-44-6-24 0-33 8-33 31v215h89c8 0 14 5 14 14v66c0 8-6 14-14 14h-89v103c0 5-3 8-6 11-3 3-9 3-11 3l-92-12c-8 0-14-8-14-14v-91h-50c-9 0-15-6-15-15v-65c0-9 6-15 15-15h50v-228c0-77 41-117 126-117 24 0 65 5 91 14 6 3 12 9 9 17l-9 60 0 0z m1221 6c0 3-3 8-5 11-3 3-9 3-12 3-27-6-53-8-80-8-58 0-73 14-73 62v118c0 48 17 62 73 62 15 0 47-2 80-8 3 0 9 0 12 3 2 3 5 5 5 11l12 69c0 8-3 14-12 17-35 11-76 14-100 14-138 0-194-48-194-168v-115c0-120 56-168 194-168 33 0 71 5 100 14 9 3 12 9 12 17l-12 66h0z m-2018 11h109c47 0 65 12 65 49v43c0 37-15 51-56 51h-39c-8 0-14 6-14 15v71c0 8 6 14 14 14h21c38 0 53 14 53 49v51c0 20-6 40-53 40h-100v-383h0z m1653 332h-91c-8 0-14-6-14-15v-280c-33-17-80-34-106-34-21 0-30 9-30 29v285c0 9-6 15-14 15h-92c-9 0-15-6-15-15v-297c0-86 36-131 106-131 47 0 115 17 171 42l6-22c3-6 9-12 15-12h67c9 0 15 6 15 14v406c-3 6-9 15-18 15l0 0z m-2239 205c-165 0-300-42-300-97 0-14 35-217 50-297 6-37 103-88 250-88 147 0 241 51 250 88 15 80 50 283 50 297-3 54-135 97-300 97l0 0z m0-417c-53 0-94 40-94 92 0 51 41 91 94 91 53 0 94-40 94-91 0-49-41-91-94-91l0-1z m3031-197l-121 194 118 192c3 5 3 11 0 14-3 6-9 9-15 9h-100c-6 0-12-3-15-9l-111-189v349c0 9-6 14-15 14h-91c-9 0-15-5-15-14v-568c0-9 6-15 15-15h91c9 0 15 6 15 15v185l117-194c3-6 9-9 12-9h100c9 0 15 6 15 15 3 5 3 8 0 11l0 0z m138 243v14c0 43 21 60 65 60 50 0 59-23 59-60v-14h-124v0z m-3169 94c26 0 47-20 47-46 0-25-21-45-47-45-26 0-47 20-47 45 0 26 21 46 47 46z m1680 80c-44 0-91-11-120-23v163c0 9-6 14-15 14h-91c-9 0-15-5-15-14v-566c0-8 6-14 12-14 56-9 123-14 162-14 170 0 206 71 206 177v123c0 103-48 154-139 154h0z m-729 52c-9 0-15 5-15 14v77c0 9 6 14 15 14h91c9 0 15-8 15-14v-77c0-9-6-14-15-14h-91v0z m-951 20c-106 0-191 17-191 40 0 23 85 40 191 40 106 0 191-17 191-40 0-23-85-40-191-40v0z m1180 225c-15 0-38 6-50 15-3 0-3 3-3 5l6 23 3 3h6c15-3 29-6 44-6 18 0 18 6 18 15 0 5 0 11-27 17-41 8-47 20-47 51 0 29 9 48 62 48 15 0 35-2 47-5 0 0 3-3 3-6l-3-26-3-2h-6c-5 0-11 0-18 1l-5 0c-7 1-13 2-18 2-18 0-18-3-18-12 0-11 0-11 21-17 44-12 50-20 50-54 0-32-12-52-61-52h-1l0 0z m-129 0c-18 0-39 6-59 15-3 0-3 3-3 5l6 23 3 3h6c14-3 29-6 44-6 17 0 17 6 17 15 0 5 0 11-26 17-41 8-47 20-47 51 0 29 9 48 62 48 14 0 35-2 47-5 3 0 6-3 6-6l-3-26-3-2h-3c-5 0-12 0-18 1l-6 0c-6 1-12 1-17 1-18 0-18-2-18-11 0-11 0-11 20-17 44-12 50-20 53-54 0-32-11-52-60-52h-1v0z m532 169c-18 0-41-6-65-14l-3 8c0 3-2 3-5 3h-27c-3 0-6-3-6-6v-151c0-3 3-6 6-6h35c3 0 6 3 6 6v106c12 5 30 11 41 11 9 0 12-3 12-11v-106c0-3 3-6 6-6h35c3 0 6 3 6 6v112c-3 34-15 48-41 48l0 0z m-282-3h-36c-3 0-6-3-6-6v-151c0-3 3-6 6-6h36c3 0 6 3 6 6v152c0 2-3 5-6 5l0 0z m-483 63h-35c-3 0-6-3-6-6v-214c0-3 3-6 6-6h35c3 0 6 3 6 6v214c0 3-3 6-6 6l0 0z m-224-9c0 3-2 3-5 3h-53c-3 0-6-3-6-3l-68-208v-6c0-3 3-3 6-3h38c3 0 6 3 6 3l47 154c0 0 0 3 6 3 3 0 6-3 6-3l20-71h-29c-3 0-6-3-6-3l-9-28v-6c0 0 3-3 6-3h50l12-40c0-3 3-3 6-3h38c3 0 3 0 6 3v6l-71 205v0z m304-182c14 0 23 2 29 5v23h-29c-12 0-15-6-15-14 0-11 3-14 14-14h1v0z m-142 0c0 2 0 2-3 2h-6c-5-2-11-2-17-2-9 0-12 2-12 11v83h32c3 0 6 3 6 6v22c0 3-3 6-6 6h-32v40c0 3 0 3-3 3 0 0-3 3-6 0l-35-6c-3 0-6-3-6-6v-34h-18c-2 0-5-3-5-6v-25c0-3 3-6 6-6h17v-86c0-28 15-43 48-43 8 0 23 3 32 6 12 6 12 6 12 9l-3 25-1 1z m627 0c15 0 24 2 29 5v23h-29c-12 0-15-6-15-14 0-11 3-14 15-14h0v0z m-477 131c-17 0-38-3-53-6-3 0-5-3-3-5l4-23c0-3 0-3 3-3h3c14 3 29 3 41 3 23 0 29-6 29-20v-15h-35c-36 0-50-14-50-45 0-32 17-49 44-49 17 0 32 6 47 12v-6c0-3 3-3 6-3h26c3 0 6 3 6 6v97c0 43-17 57-67 57l-1 0z m483 0c-18 0-38-3-53-6-3 0-6-3-3-5l3-23c0-3 0-3 3-3h3c14 3 29 3 41 3 23 0 29-6 29-20v-15h-35c-35 0-50-14-50-45 0-32 18-49 44-49 18 0 33 6 47 12l3-6c0-3 3-3 6-3h27c3 0 6 3 6 6v97c-3 43-21 57-71 57v0z m-88 60h-36c-3 0-6-3-6-6v-28c0-3 3-6 6-6h36c3 0 6 3 6 6v28c0 3-3 6-6 6l0 0z" horiz-adv-x="4034" />

<glyph glyph-name="audi" unicode="&#xe81c;" d="M3650 242c0 79-34 171-138 299l-251 309h-349l199-216c33-37 76-69 76-69-48 27-110 38-158 38-115 0-232-24-336-80-112-59-186-158-186-290 0-101 46-179 106-238 134-130 377-143 466-143 132 0 339 29 456 132 68 61 115 146 115 258l0 0z m385 341h-303v-708h303v708z m-2491-708l-669 975h-375l103-119-588-856h338l101 161h638l103-160h349v-1z m887 297v411h-294v-316c0-90-4-115-9-139-21-65-91-94-164-94-100 0-147 38-165 98-6 20-8 41-10 63-1 23 0 49 0 76v312h-297v-413c0-92 32-161 84-208 89-85 239-110 379-110 169 0 299 23 392 112 48 45 84 105 84 208h0z m929 61c0-74-50-130-113-161-52-27-114-34-168-34-54 0-117 11-169 36-63 31-111 90-111 155 0 78 61 139 133 170 45 20 99 27 142 27 41 0 100-5 146-23 84-35 140-100 140-170z m-2386-7h-405l202 323 203-323h0z" horiz-adv-x="4034" />

<glyph glyph-name="atlassian" unicode="&#xe81d;" d="M3291 194c-68 17-68 18-68 54 0 24 2 36 58 36 38 0 95-7 131-13 5-1 10 1 14 4 4 3 7 7 7 12l11 81c1 9-5 18-15 20-42 9-100 15-148 15-169 0-203-61-203-154 0-101 19-136 148-166 85-20 85-34 85-59 0-32-3-43-58-43-45 0-97 7-142 18-5 2-11 1-15-2-4-2-7-7-8-12l-14-77c-2-9 3-17 12-20 50-16 121-26 173-26 163 0 196 66 196 165 0 110-20 130-165 168l1-1v0z m-423 0c-67 17-67 18-67 54 0 24 2 36 58 36 38 0 95-7 131-13 5-1 10 1 14 4 4 3 7 7 7 12l11 81c1 9-5 18-14 20-42 9-100 15-148 15-168 0-203-61-203-154 0-101 20-136 148-166 85-20 85-34 85-59 0-32-3-43-58-43-45 0-97 7-142 18-5 2-10 1-15-2-4-2-7-7-8-12l-15-77c-1-8 4-17 13-20 49-15 121-26 173-26 163 0 196 66 196 166 0 109-20 130-165 167l-1-1v0z m-1494 372c-2 7-9 12-17 12h-173c-8 0-15-5-18-12l-217-670c-2-6-1-12 3-16 3-5 9-8 14-8h119c8 0 16 6 18 13l150 493c0 0 4 13 17 13 14 0 18-13 18-13l70-234h-94c-8 0-15-5-17-13l-27-93c-2-5 0-11 3-15 3-5 9-7 15-7h159l42-131c2-7 10-12 18-12h118c6 0 12 2 15 7 4 5 5 11 3 16l-218 671 0-1-1 0z m2270-173h-109c-10 0-19-8-19-18v-486c0-10 9-18 19-18h109c10 0 19 8 19 18v485c0 10-8 18-19 18l0 1 0 0z m-1550 198h-109c-10 0-18-8-18-18v-684c0-10 8-18 18-18h109c11 0 19 8 19 18v684c0 10-8 18-18 18l-1 0v0z m2457-188c-58 0-136-19-203-50l-8 26c-2 8-10 13-18 13h-81c-10 0-18-8-18-18v-485c0-10 8-18 18-18h109c10 0 19 8 19 18v336c39 19 95 40 127 40 25 0 34-9 34-33v-343c0-10 9-18 19-18h109c10 0 18 8 18 18v357c0 104-42 157-125 157h0l0 0z m-4131-289c-3 3-7 6-14 6-9 0-14-6-16-9-51-75-78-147-81-219 0-5 2-10 5-14 4-5 9-7 15-7h121c11 0 19 8 20 18 3 35 14 69 34 105 7 13 2 25-2 30-20 25-45 52-81 89l0 1-1 0z m2029-51v-63c-18-10-51-23-91-23-34 0-44 10-44 43 0 32 6 42 46 42h89v1 0z m1552 0v-63c-18-10-51-23-90-23-34 0-44 10-44 43 0 32 6 42 46 42h88v1 0z m-2109-88c0 5-3 9-8 12-4 3-9 4-14 3-20-5-38-8-53-8-27 0-39 12-39 37v257h106c10 0 18 9 18 19v80c0 10-8 18-18 18h-106v123c0 6-2 10-6 14-4 3-10 5-15 4l-109-15c-9-1-16-8-16-17v-109h-60c-10 0-18-8-18-18v-81c0-10 8-18 19-18h59v-274c0-94 51-141 151-141 28 0 77 6 109 17 8 3 13 11 12 20l-12 76 0 1 0 0z m483 428c-55 0-122-9-171-22-10-2-16-11-14-20l13-77c0-5 3-9 7-12 4-3 9-3 14-3 46 9 93 14 132 14 79 0 92-17 92-68v-46h-117c-112 0-159-44-159-149 0-101 52-158 143-158 53 0 106 14 150 40l5-17c2-7 10-13 18-13h89c10 0 18 9 18 18v323c0 139-59 190-219 190l-1 0 0 0z m1553 0c-56 0-123-9-171-22-10-2-15-11-14-20l13-77c1-5 4-9 8-12 4-3 9-3 14-3 45 9 92 14 132 14 78 0 91-17 91-68v-46h-117c-112 0-160-44-160-149 0-101 53-158 144-158 53 0 105 14 150 40l5-17c2-7 9-13 17-13h89c10 0 18 9 18 18v323c0 139-59 190-219 190l0 0 0 0z m-3016 185c-4 3-8 4-13 4-2 0-5 0-7-1-44-16-87-28-127-37-8-3-16-8-18-15-29-78-104-152-182-230-3-2-7-7-15-7-7 0-11 4-14 7-79 77-153 151-182 229-3 7-10 13-18 15-40 9-84 21-127 37-2 1-5 1-8 1-4 0-8-1-12-4-5-4-8-10-7-17 6-64 33-127 80-194 45-62 103-120 159-175 104-103 202-200 210-312 1-10 10-18 20-18h122c5 0 11 2 14 6 4 4 6 9 6 14-4 75-33 151-89 230-12 17-24 33-37 49-6 7-4 15 1 19l12 12c56 55 114 113 159 175 48 66 74 129 80 194 1 6-2 13-7 17l0 1 0 0z m-361-58c38 0 60 2 68 2 9 0 18-7 18-17 0-3-1-5-1-7-5-13-29-61-72-101-5-5-10-6-14-6-3 0-9 1-14 6-43 40-66 88-71 101-1 2-1 4-1 7 0 11 9 18 18 18 8 0 30-2 68-2h0l1-1 0 0z m3093 61h-109c-10 0-19-8-19-18v-93c0-10 9-18 19-18h109c10 0 19 8 19 18v94c0 10-9 18-19 18l0-1v0z m-2561 223c-5 6-12 10-20 10-4 0-8-1-12-3-149-79-322-121-500-121-178 0-351 42-500 121-4 2-8 3-12 3-8 0-16-4-21-10-7-8-7-24 5-33 75-54 157-96 245-125 91-30 186-46 283-46 96 0 192 16 282 46 88 29 171 71 245 125 12 9 12 25 5 34v-1h0z" horiz-adv-x="4680" />

<glyph glyph-name="arrow_right" unicode="&#xe81e;" d="M105 350h1211m0 0l-411 395m411-395l-411-395" horiz-adv-x="1421" />

<glyph glyph-name="arrow_left" unicode="&#xe81f;" d="M1316 350l-1211 0m0 0l411-395m-411 395l411 395" horiz-adv-x="1421" />

<glyph glyph-name="apple-watch" unicode="&#xe820;" d="M609 589c-83 6-153-44-192-44-39 0-100 43-165 42-85-1-163-48-207-122-88-149-22-369 64-490 42-59 92-125 158-123 63 3 87 40 163 40 77 0 99-40 166-38 68 1 111 60 153 119 48 69 68 135 69 138-2 1-133 50-134 197-1 123 103 182 108 185-60 85-151 94-183 96z m3291-480v-13c0-128-96-243-290-243-194 0-309 118-309 324v86c0 204 116 326 309 326 182 0 290-111 290-250v-7h-145c0 70-46 133-144 133-103 0-155-68-155-202v-86c0-135 51-199 156-199 105 0 143 58 143 131h145z m-2648-40h3l130 508h154l131-508h3l121 508h162l-203-712h-155l-134 487h-3l-135-487h-153l-204 712h162l121-508z m2962 222h300v286h152v-712h-152v304h-300v-304h-152v712h152v-286z m-1011 286v-123h-219v-589h-151v589h-218v123h588z m-821 0l235-712h-162l-53 180h-232l-53-180h-152l237 712h180z m-11-423l-83 283h-1l-84-283h168z m-1817 511c-35-39-90-69-145-65-7 56 21 114 53 150 37 41 97 72 148 74 6-57-17-114-52-155l-2-2-2-2z" horiz-adv-x="4680" />

<glyph glyph-name="down-open" unicode="&#xf004;" d="M0 533q0 25 18 43t44 18 42-18l305-303 304 303q18 18 43 18t43-18q18-18 18-43t-18-43l-390-391-391 391q-18 19-18 43z" horiz-adv-x="817.4" />

<glyph glyph-name="up-open" unicode="&#xf005;" d="M0 167q0 26 18 43l391 391 390-391q17-17 17-43 0-26-17-44-18-17-44-17t-43 17l-303 305-305-305q-18-17-43-17t-43 17q-18 18-18 44z" horiz-adv-x="816.9" />

<glyph glyph-name="right-open" unicode="&#xf006;" d="M0 0q0 25 18 43l305 304-305 304q-18 18-18 44t18 43 44 18 43-18l390-391-390-391q-19-18-43-18t-44 18q-18 18-18 44z" horiz-adv-x="495.1" />

<glyph glyph-name="left-open" unicode="&#xf007;" d="M0 353l391 391q18 18 43 18 24 0 43-18 18-18 18-44t-18-43l-304-304 304-305q18-17 18-43t-18-43q-18-18-43-18t-43 18z" horiz-adv-x="495.1" />

<glyph glyph-name="folder-open-empty" unicode="&#xf115;" d="M994 331q0 19-30 19h-607q-22 0-48-12t-39-29l-164-203q-11-13-11-22 0-20 30-20h607q23 0 48 13t40 29l164 203q10 12 10 22z m-637 90h429v90q0 22-16 38t-38 15h-321q-23 0-38 16t-16 38v36q0 22-15 38t-38 15h-179q-22 0-38-15t-16-38v-476l143 175q25 30 65 49t78 19z m708-90q0-35-25-67l-165-203q-24-30-65-49t-78-19h-607q-51 0-88 37t-37 88v536q0 51 37 88t88 37h179q51 0 88-37t37-88v-18h303q52 0 88-37t37-88v-90h107q30 0 56-13t37-40q8-17 8-37z" horiz-adv-x="1071.4" />
</font>
</defs>
</svg>
